<?xml version="1.0" encoding="UTF-8"?>
<svg version="1.1" xmlns="http://www.w3.org/2000/svg" width="2000" height="2000">
<path d="M0 0 C660 0 1320 0 2000 0 C2000 660 2000 1320 2000 2000 C1340 2000 680 2000 0 2000 C0 1340 0 680 0 0 Z " fill="#FEFEFE" transform="translate(0,0)"/>
<path d="M0 0 C42.44738115 -0.20592244 84.89470476 -0.36454744 127.3424863 -0.45958797 C132.35186017 -0.47084456 137.36123306 -0.48249344 142.37060547 -0.49438477 C143.36789694 -0.49674556 144.36518841 -0.49910635 145.39270084 -0.50153869 C161.54864989 -0.54071903 177.70431123 -0.61169014 193.8600895 -0.69437516 C210.43286238 -0.77848804 227.00548441 -0.82851818 243.578462 -0.84679645 C253.80812196 -0.85915637 264.03696876 -0.89821599 274.26637845 -0.9712482 C281.27757698 -1.01875957 288.28835411 -1.03321533 295.299702 -1.0215124 C299.34748594 -1.01573749 303.39384749 -1.02469282 307.44137955 -1.07284927 C311.14699702 -1.11661633 314.85023489 -1.11888849 318.55596142 -1.08809005 C320.53201605 -1.08247953 322.50804217 -1.12133493 324.48369181 -1.16173178 C332.90074683 -1.0334105 332.90074683 -1.0334105 336.08535933 1.96045125 C337.63636373 4.25001135 338.84482248 6.49174645 340 9 C340.99181274 10.62711914 340.99181274 10.62711914 342.00366211 12.28710938 C342.88163452 13.80014648 342.88163452 13.80014648 343.77734375 15.34375 C344.10517349 15.90634521 344.43300323 16.46894043 344.77076721 17.04858398 C345.46795236 18.24534589 346.16397554 19.4427854 346.85888672 20.64086914 C348.73147815 23.86852504 350.61377571 27.09050968 352.49609375 30.3125 C352.87692108 30.96464478 353.25774841 31.61678955 353.65011597 32.28869629 C357.21740749 38.38891441 360.85074715 44.44848996 364.5 50.5 C369.90042944 59.46164991 375.2213339 68.46638348 380.5 77.5 C386.33804558 87.4892418 392.23728811 97.43822078 398.20410156 107.35131836 C403.24954805 115.73729398 408.25618779 124.1457223 413.25 132.5625 C413.6481189 133.23330597 414.04623779 133.90411194 414.4564209 134.59524536 C418.51839028 141.43950198 422.57751501 148.28543512 426.6318512 155.13421631 C428.62855999 158.50674149 430.62651581 161.87852663 432.625 165.25 C433.01740875 165.91215515 433.4098175 166.5743103 433.81411743 167.25653076 C439.80675866 177.36354802 445.88744664 187.41402362 452.00918579 197.4432373 C457.07198094 205.74445215 461.98289766 214.11551029 466.77099609 222.57763672 C470.42211192 229.02217359 474.19178363 235.38592656 478.02001953 241.7265625 C481.16264949 246.93394934 484.28358279 252.15342531 487.3828125 257.38671875 C487.77034698 258.04103882 488.15788147 258.69535889 488.55715942 259.36950684 C489.35948545 260.72432767 490.16178197 262.07916599 490.96405029 263.434021 C497.55343508 274.56118914 504.19897451 285.65001237 510.9375 296.6875 C516.28976564 305.45578794 521.50480329 314.28348412 526.56005859 323.22607422 C530.89654413 330.87688417 535.41174898 338.41377507 539.95068359 345.94580078 C545.08390835 354.46507132 550.17560733 363.00808851 555.25 371.5625 C556.05524191 372.91936127 556.86049914 374.27621344 557.66577148 375.63305664 C561.32416944 381.79831239 564.97988961 387.96514579 568.6318512 394.13421631 C570.62855999 397.50674149 572.62651581 400.87852663 574.625 404.25 C575.21361313 405.24323273 575.21361313 405.24323273 575.81411743 406.25653076 C581.80775837 416.3652341 587.8896647 426.41725484 594.01220703 436.44827271 C599.00281997 444.63158725 603.84339787 452.88244743 608.56005859 461.22607422 C612.89654413 468.87688417 617.41174898 476.41377507 621.95068359 483.94580078 C627.08390651 492.46506825 632.17594536 501.00789013 637.25 509.5625 C637.64201599 510.22327545 638.03403198 510.8840509 638.43792725 511.56484985 C640.45129396 514.95856758 642.46427898 518.35251145 644.47705078 521.74658203 C648.44937946 528.44435063 652.42592311 535.13961732 656.40197754 541.83517456 C658.43870349 545.26502996 660.47520594 548.69501805 662.51171875 552.125 C663.1936024 553.27343816 663.87548704 554.42187574 664.55737305 555.5703125 C665.03343994 556.37210938 665.50950684 557.17390625 666 558 C668.67813752 555.5849251 670.3043511 552.98947088 672.08203125 549.86328125 C672.67701416 548.82349121 673.27199707 547.78370117 673.88500977 546.71240234 C674.83911743 545.02945068 674.83911743 545.02945068 675.8125 543.3125 C676.8254655 541.53876625 677.84021083 539.76605798 678.85496521 537.99334717 C679.54885426 536.78081764 680.24217772 535.56796428 680.93495178 534.35479736 C684.2750514 528.50728225 687.66332723 522.68835798 691.0625 516.875 C691.63742187 515.89080078 692.21234375 514.90660156 692.8046875 513.89257812 C693.96269482 511.91020462 695.12089678 509.9279448 696.27929688 507.94580078 C697.98477968 505.02605681 699.68810877 502.1050684 701.390625 499.18359375 C708.1065222 487.65991048 714.84135372 476.1475021 721.5894165 464.64263916 C728.17646352 453.41169995 734.74246939 442.16860387 741.29833984 430.91943359 C744.19752026 425.9454882 747.09888692 420.9728183 750 416 C751.16667678 414.0000059 752.33334346 412.00000591 753.5 410 C765.16666667 390 776.83333333 370 788.5 350 C789.0772583 349.01040283 789.6545166 348.02080566 790.24926758 347.0012207 C791.41833519 344.99712809 792.58744339 342.99305915 793.7565918 340.98901367 C796.63685396 336.05182205 799.51645665 331.11424845 802.39453125 326.17578125 C809.10979752 314.65509508 815.84282407 303.14499527 822.5894165 291.64263916 C829.17646352 280.41169995 835.74246939 269.16860387 842.29833984 257.91943359 C845.19752026 252.9454882 848.09888692 247.9728183 851 243 C852.16667678 241.0000059 853.33334346 239.00000591 854.5 237 C866.16666667 217 877.83333333 197 889.5 177 C890.0772583 176.01040283 890.6545166 175.02080566 891.24926758 174.0012207 C892.41833519 171.99712809 893.58744339 169.99305915 894.7565918 167.98901367 C897.63685396 163.05182205 900.51645665 158.11424845 903.39453125 153.17578125 C910.10979752 141.65509508 916.84282407 130.14499527 923.5894165 118.64263916 C930.17646352 107.41169995 936.74246939 96.16860387 943.29833984 84.91943359 C946.19752026 79.9454882 949.09888692 74.9728183 952 70 C953.16667678 68.0000059 954.33334346 66.00000591 955.5 64 C957.83333333 60 960.16666667 56 962.5 52 C963.3672168 50.51330811 963.3672168 50.51330811 964.25195312 48.99658203 C965.41202833 47.00792798 966.57218384 45.01932077 967.73242188 43.03076172 C970.75061733 37.85756113 973.76717659 32.68341597 976.78125 27.5078125 C977.40386719 26.43917969 978.02648438 25.37054688 978.66796875 24.26953125 C979.84818039 22.24379486 981.02790584 20.21777509 982.20703125 18.19140625 C982.74714844 17.26457031 983.28726563 16.33773438 983.84375 15.3828125 C984.30974609 14.58246582 984.77574219 13.78211914 985.25585938 12.95751953 C986.11920898 11.49354736 986.11920898 11.49354736 987 10 C987.50276417 8.79514857 987.50276417 8.79514857 988.0156852 7.56595671 C989.41422527 4.60282451 990.74065827 2.38397393 993 0 C997.40560887 -1.49155973 1001.67215438 -1.3083676 1006.28756714 -1.20254517 C1007.65807462 -1.20690786 1009.02857396 -1.21566732 1010.3990289 -1.22843683 C1014.16046506 -1.25078448 1017.91905054 -1.21083072 1021.68012333 -1.16065621 C1025.73731369 -1.11745803 1029.79434418 -1.13208605 1033.85169983 -1.13967896 C1040.87959754 -1.14492186 1047.90656668 -1.11355666 1054.9342308 -1.05730057 C1065.09487656 -0.97601807 1075.25507345 -0.94998521 1085.41600908 -0.93742065 C1101.90129184 -0.91553594 1118.3860797 -0.84899161 1134.87109375 -0.75439453 C1150.88441492 -0.66259977 1166.89760165 -0.591818 1182.91113281 -0.54931641 C1183.89825201 -0.54668917 1184.8853712 -0.54406194 1185.9024031 -0.54135509 C1190.85450603 -0.52830468 1195.80660992 -0.51566761 1200.75871444 -0.50323606 C1241.83948723 -0.39957384 1282.9197153 -0.22344719 1324 0 C1323.05511801 1.7482452 1322.10828564 3.49543635 1321.16064453 5.2421875 C1320.63358917 6.21526855 1320.10653381 7.18834961 1319.56350708 8.19091797 C1317.49470179 11.9078463 1315.225123 15.45690095 1312.875 19 C1311.91182736 20.47074354 1310.94962351 21.94212189 1309.98828125 23.4140625 C1309.25085693 24.54183105 1309.25085693 24.54183105 1308.49853516 25.69238281 C1305.98428079 29.56412154 1303.52279088 33.46882622 1301.0625 37.375 C1300.56266602 38.16801514 1300.06283203 38.96103027 1299.54785156 39.77807617 C1298.5340424 41.38718079 1297.52053333 42.99647452 1296.50732422 44.60595703 C1294.04934377 48.50990201 1291.58768238 52.41151977 1289.125 56.3125 C1288.63523682 57.08835449 1288.14547363 57.86420898 1287.64086914 58.66357422 C1283.1829276 65.72035783 1278.69986246 72.76105338 1274.21582031 79.80126953 C1268.94553363 88.0787882 1263.70266097 96.37340293 1258.46777344 104.67333984 C1255.98016643 108.61660245 1253.48993586 112.55820768 1251 116.5 C1249.99998776 118.0833256 1248.99998775 119.66665893 1248 121.25 C1246 124.41666667 1244 127.58333333 1242 130.75 C1241.50516113 131.5335083 1241.01032227 132.3170166 1240.50048828 133.12426758 C1239.49890965 134.71007325 1238.49728192 136.29584791 1237.49560547 137.8815918 C1235.01935816 141.80184757 1232.54392299 145.72261107 1230.0703125 149.64453125 C1224.14046007 159.04397818 1218.186155 168.4274846 1212.21582031 177.80126953 C1206.94553363 186.0787882 1201.70266097 194.37340293 1196.46777344 202.67333984 C1193.98016643 206.61660245 1191.48993586 210.55820768 1189 214.5 C1187.99998776 216.0833256 1186.99998775 217.66665893 1186 219.25 C1184 222.41666667 1182 225.58333333 1180 228.75 C1179.50516113 229.5335083 1179.01032227 230.3170166 1178.50048828 231.12426758 C1177.49890965 232.71007325 1176.49728192 234.29584791 1175.49560547 235.8815918 C1173.01935816 239.80184757 1170.54392299 243.72261107 1168.0703125 247.64453125 C1162.14046007 257.04397818 1156.186155 266.4274846 1150.21582031 275.80126953 C1144.94553363 284.0787882 1139.70266097 292.37340293 1134.46777344 300.67333984 C1131.98016643 304.61660245 1129.48993586 308.55820768 1127 312.5 C1125.99998776 314.0833256 1124.99998775 315.66665893 1124 317.25 C1122 320.41666667 1120 323.58333333 1118 326.75 C1117.50516113 327.5335083 1117.01032227 328.3170166 1116.50048828 329.12426758 C1115.49890965 330.71007325 1114.49728192 332.29584791 1113.49560547 333.8815918 C1111.01935816 337.80184757 1108.54392299 341.72261107 1106.0703125 345.64453125 C1100.14046007 355.04397818 1094.186155 364.4274846 1088.21582031 373.80126953 C1082.94553363 382.0787882 1077.70266097 390.37340293 1072.46777344 398.67333984 C1069.47901427 403.41101032 1066.48671078 408.14644325 1063.49511719 412.88232422 C1061.01905673 416.80235106 1058.5437665 420.72285919 1056.0703125 424.64453125 C1050.14046007 434.04397818 1044.186155 443.4274846 1038.21582031 452.80126953 C1032.94553363 461.0787882 1027.70266097 469.37340293 1022.46777344 477.67333984 C1019.98016643 481.61660245 1017.48993586 485.55820768 1015 489.5 C1013.99998776 491.0833256 1012.99998775 492.66665893 1012 494.25 C1010 497.41666667 1008 500.58333333 1006 503.75 C1005.50516113 504.5335083 1005.01032227 505.3170166 1004.50048828 506.12426758 C1003.49890965 507.71007325 1002.49728192 509.29584791 1001.49560547 510.8815918 C999.01935816 514.80184757 996.54392299 518.72261107 994.0703125 522.64453125 C988.14046007 532.04397818 982.186155 541.4274846 976.21582031 550.80126953 C970.94553363 559.0787882 965.70266097 567.37340293 960.46777344 575.67333984 C957.98016643 579.61660245 955.48993586 583.55820768 953 587.5 C951.99998776 589.0833256 950.99998775 590.66665893 950 592.25 C948 595.41666667 946 598.58333333 944 601.75 C943.50516113 602.5335083 943.01032227 603.3170166 942.50048828 604.12426758 C941.49890965 605.71007325 940.49728192 607.29584791 939.49560547 608.8815918 C937.01935816 612.80184757 934.54392299 616.72261107 932.0703125 620.64453125 C926.14046007 630.04397818 920.186155 639.4274846 914.21582031 648.80126953 C908.94553363 657.0787882 903.70266097 665.37340293 898.46777344 673.67333984 C895.98016643 677.61660245 893.48993586 681.55820768 891 685.5 C889.99998776 687.0833256 888.99998775 688.66665893 888 690.25 C886 693.41666667 884 696.58333333 882 699.75 C881.50516113 700.5335083 881.01032227 701.3170166 880.50048828 702.12426758 C879.49890965 703.71007325 878.49728192 705.29584791 877.49560547 706.8815918 C875.01935816 710.80184757 872.54392299 714.72261107 870.0703125 718.64453125 C864.14046007 728.04397818 858.186155 737.4274846 852.21582031 746.80126953 C846.94553363 755.0787882 841.70266097 763.37340293 836.46777344 771.67333984 C833.98016644 775.61660244 831.48995129 779.55821744 829 783.5 C825.94075761 788.3433408 822.88188021 793.18691094 819.82421875 798.03125 C819.29892578 798.86333984 818.77363281 799.69542969 818.23242188 800.55273438 C817.24528146 802.11643468 816.25828766 803.68022755 815.27148438 805.24414062 C814.81451172 805.96794922 814.35753906 806.69175781 813.88671875 807.4375 C813.45662398 808.14705485 813.02652921 808.8566097 812.58340126 809.58766621 C811 812 811 812 809.21777242 814.01117498 C801.4647823 823.59942125 803.03261167 835.20704914 803.12025452 846.91130066 C803.11306784 849.37506098 803.10281157 851.83881393 803.08975595 854.30255014 C803.06842315 859.65180882 803.06869016 865.00041208 803.08818626 870.34963036 C803.11705736 878.30349708 803.10567515 886.25695526 803.08618858 894.21083243 C803.05453807 907.59214688 803.0553184 920.97327468 803.07469368 934.35460472 C803.09376637 947.60042357 803.09835617 960.84611759 803.08367729 974.09194374 C803.08231954 975.32812404 803.08231954 975.32812404 803.08093435 976.58927767 C803.07626216 980.77470611 803.07133192 984.96013419 803.06630235 989.14556221 C803.03115804 1018.77748277 803.02837448 1048.40932659 803.04467773 1078.04125977 C803.0604402 1106.8251346 803.0613917 1135.60894834 803.04272461 1164.39282227 C803.04157112 1166.20339431 803.04041807 1168.01396636 803.03926545 1169.82453841 C803.02982061 1184.53660884 803.01935457 1199.24867853 803.008641 1213.96074808 C802.95984867 1281.97387916 802.98566893 1349.98679334 803 1418 C709.28 1418 615.56 1418 519 1418 C519.07863281 1375.13609375 519.15726563 1332.2721875 519.23828125 1288.109375 C519.25785208 1262.61238833 519.2765349 1237.11546253 519.27883327 1211.61847806 C519.28024821 1196.66296661 519.28226946 1181.70745544 519.28616024 1166.75194441 C519.28662921 1164.94306878 519.28707911 1163.13419315 519.28750967 1161.32531752 C519.29452604 1132.51308705 519.34352607 1103.70111726 519.41458252 1074.88897942 C519.48741795 1045.26487998 519.51749885 1015.64103503 519.49415877 986.01684787 C519.49087831 981.82796647 519.48808412 977.63908488 519.48558617 973.45020294 C519.48507952 972.62581057 519.48457286 971.80141819 519.48405086 970.95204422 C519.47715956 957.70752508 519.51503513 944.46349815 519.5698591 931.21910649 C519.62407873 917.8880959 519.63064241 904.55772465 519.58934812 891.22666219 C519.56627142 883.31612926 519.57894611 875.40759198 519.64420614 867.49728423 C519.68903618 861.57317152 519.66517276 855.6505709 519.61575343 849.72645453 C519.60631344 847.34251639 519.61849351 844.9583647 519.6554362 842.57469413 C519.89237515 826.22135667 516.74377992 816.19535666 506.68161096 803.24169293 C503.85010925 799.46712348 501.41186009 795.45116599 498.9375 791.4375 C497.94787747 789.86248704 496.95714264 788.28817191 495.96484375 786.71484375 C495.47612793 785.93737793 494.98741211 785.15991211 494.48388672 784.35888672 C491.99496136 780.40232258 489.49700827 776.45146588 487 772.5 C485.99995714 770.91669374 484.99995713 769.33336041 484 767.75 C483.505 766.96625 483.01 766.1825 482.5 765.375 C346 549.25 346 549.25 344.50048828 546.87573242 C343.49890965 545.28992675 342.49728192 543.70415209 341.49560547 542.1184082 C339.01935816 538.19815243 336.54392299 534.27738893 334.0703125 530.35546875 C328.73116745 521.89235585 323.37559801 513.44001252 318 505 C312.13367474 495.78951614 306.29326982 486.56300997 300.46777344 477.32666016 C297.98016643 473.38339755 295.48993586 469.44179232 293 465.5 C291.99998776 463.9166744 290.99998775 462.33334107 290 460.75 C289.505 459.96625 289.01 459.1825 288.5 458.375 C239 380 189.5 301.625 114.50048828 182.87573242 C113.49890965 181.28992675 112.49728192 179.70415209 111.49560547 178.1184082 C109.01935816 174.19815243 106.54392299 170.27738893 104.0703125 166.35546875 C98.73116745 157.89235585 93.37559801 149.44001252 88 141 C82.13367474 131.78951614 76.29326982 122.56300997 70.46777344 113.32666016 C67.98016643 109.38339755 65.48993586 105.44179232 63 101.5 C61.99998776 99.9166744 60.99998775 98.33334107 60 96.75 C59.505 95.96625 59.01 95.1825 58.5 94.375 C30 49.25 30 49.25 28.49926758 46.8737793 C27.5017825 45.29446854 26.50422421 43.71520402 25.5065918 42.13598633 C22.96750329 38.11648855 20.42979166 34.09613233 17.89453125 30.07421875 C17.12737793 28.85786743 17.12737793 28.85786743 16.34472656 27.61694336 C15.33450847 26.01517786 14.32473255 24.41313338 13.31542969 22.81079102 C10.98259552 19.11325663 8.63554789 15.42687149 6.24609375 11.765625 C5.82287842 11.1156958 5.39966309 10.4657666 4.96362305 9.79614258 C4.17618283 8.59019159 3.38489877 7.38673846 2.58911133 6.1862793 C0 2.22043273 0 2.22043273 0 0 Z " fill="#8C52FF" transform="translate(188,286)"/>
<path d="M0 0 C0.70419067 -0.00367584 1.40838135 -0.00735168 2.13391113 -0.01113892 C18.44865025 -0.05577601 33.1177972 2.07222044 45.3046875 13.84765625 C52.74950095 21.9751256 58.21422479 30.18489376 57.84375 41.484375 C55.92543362 60.77411197 39.72042174 76.52730476 25.5625 88.3125 C21.30420023 91.75189597 16.95934433 95.05439823 12.5625 98.3125 C11.95180664 98.76898926 11.34111328 99.22547852 10.71191406 99.69580078 C-14.28612108 118.32689096 -40.74743675 135.10997493 -67.4375 151.1875 C-68.46464111 151.80665283 -69.49178223 152.42580566 -70.55004883 153.0637207 C-75.47643357 156.01300379 -80.4280506 158.91256142 -85.4375 161.71875 C-86.30375 162.20408203 -87.17 162.68941406 -88.0625 163.18945312 C-91.57807378 164.85183382 -93.62974025 165.10578328 -97.4375 164.3125 C-99.4375 162.75 -99.4375 162.75 -100.4375 160.3125 C-100.8117018 154.07580336 -97.85658948 150.7277507 -93.93359375 146.10546875 C-89.66463143 141.32877382 -85.33504725 136.61551428 -80.95361328 131.94189453 C-79.55777792 130.44176487 -78.18217539 128.92287617 -76.80859375 127.40234375 C-69.03976647 118.81931623 -60.85763289 110.66527306 -52.62182617 102.53369141 C-47.94783106 97.90729986 -43.41654351 93.23624209 -39.14282227 88.23608398 C-35.19973411 83.7883257 -30.84004126 79.7190545 -26.578125 75.58007812 C-22.33981184 71.40632708 -18.73302163 67.26880823 -15.4375 62.3125 C-101.03570115 85.64574459 -184.8069466 129.74701169 -262.4375 194.3125 C-263.26507812 195.02792969 -264.09265625 195.74335937 -264.9453125 196.48046875 C-267.50649009 198.70658189 -270.0375988 200.9125988 -272.4375 203.3125 C-272.4375 204.3025 -272.4375 205.2925 -272.4375 206.3125 C-255.96863123 211.97071019 -238.71787884 214.91390754 -221.65039062 218.16479492 C-189.76177089 224.24591253 -158.00282608 230.7176546 -126.4375 238.3125 C-125.38604797 238.56480377 -125.38604797 238.56480377 -124.31335449 238.82220459 C-119.78870551 239.90895416 -115.26813425 241.01140759 -110.75 242.125 C-109.66452881 242.39070801 -108.57905762 242.65641602 -107.46069336 242.93017578 C-101.44791793 244.43822744 -95.60177324 246.21564174 -89.73852539 248.22412109 C-85.93582282 249.47790765 -82.10440106 250.59712219 -78.2578125 251.70703125 C-69.52879626 254.2408623 -60.90977355 257.05214505 -52.3125 260 C-51.55802582 260.25817505 -50.80355164 260.5163501 -50.0262146 260.78234863 C-36.85997668 265.30702436 -24.02759996 270.34931003 -11.4375 276.3125 C-10.68500977 276.66795898 -9.93251953 277.02341797 -9.15722656 277.38964844 C-4.52933508 279.59686045 0.03442151 281.90764706 4.5625 284.3125 C5.16352539 284.62896484 5.76455078 284.94542969 6.38378906 285.27148438 C30.04220416 297.84679288 52.20412321 317.090562 62.5625 342.3125 C62.82434082 342.92416016 63.08618164 343.53582031 63.35595703 344.16601562 C66.3280146 352.26297862 66.01587266 360.56472359 65.95361328 369.0703125 C65.93757686 371.67501555 65.95349715 374.27815751 65.97265625 376.8828125 C65.99216957 390.12256346 63.99512069 401.16649785 58.375 413.25 C57.97990234 414.10972412 57.58480469 414.96944824 57.17773438 415.85522461 C46.88267015 437.8310687 30.80177176 454.64492599 12.5625 470.3125 C11.44500967 471.28611086 10.32780732 472.26005238 9.2109375 473.234375 C-8.36811281 488.46300085 -26.90890661 502.66943954 -46.4375 515.3125 C-47.90553279 516.28297001 -49.3729261 517.25440773 -50.83984375 518.2265625 C-63.13440416 526.34040575 -75.68211196 533.94699396 -88.4375 541.3125 C-89.14825684 541.7245166 -89.85901367 542.1365332 -90.59130859 542.56103516 C-100.81331668 548.46870642 -111.25994695 553.92973335 -121.74609375 559.3515625 C-125.1738604 561.12613696 -128.58514604 562.92322503 -131.97265625 564.7734375 C-177.07327299 589.31774829 -226.55955286 607.9519539 -275.36157227 623.64306641 C-281.08669999 625.48927365 -286.75346302 627.41952483 -292.375 629.5625 C-302.51436393 633.20959515 -312.97319184 635.75903141 -323.38623047 638.49560547 C-325.96729815 639.18661623 -328.53432805 639.90663945 -331.09765625 640.66015625 C-340.39487724 643.39095192 -349.76136152 645.52941643 -359.25 647.5 C-360.45438721 647.75015869 -361.65877441 648.00031738 -362.8996582 648.25805664 C-394.5347955 654.6823495 -432.68425237 660.22109714 -461.4375 642.3125 C-474.50307064 633.05695683 -485.68595773 620.90502732 -489.04052734 604.85717773 C-489.76647995 600.20366976 -489.80629344 595.57646832 -489.8125 590.875 C-489.83699219 589.90240234 -489.86148437 588.92980469 -489.88671875 587.92773438 C-489.95066954 571.97201323 -480.22311563 558.64220345 -469.375 547.6875 C-440.8449263 519.85510496 -400.11454236 497.8468514 -360.4375 492.3125 C-358.519375 492.03986328 -358.519375 492.03986328 -356.5625 491.76171875 C-333.0063252 489.26530345 -299.67885918 487.54941593 -279.73046875 502.31640625 C-273.52695866 507.71673616 -273.40951255 515.60501223 -272.4375 523.3125 C-265.29202338 522.08229158 -258.62536185 520.18913149 -251.8046875 517.75 C-250.32500488 517.2290551 -250.32500488 517.2290551 -248.81542969 516.69758606 C-245.64473347 515.57761765 -242.47828094 514.44628199 -239.3125 513.3125 C-237.68831146 512.73343399 -237.68831146 512.73343399 -236.03131104 512.14266968 C-220.63280769 506.64679269 -205.32822652 501.08738028 -190.4375 494.3125 C-189.27734375 493.78591797 -188.1171875 493.25933594 -186.921875 492.71679688 C-163.50706878 482.05099801 -140.53831636 470.76083417 -118.23388672 457.91357422 C-115.54241226 456.37256763 -112.83876791 454.85604679 -110.12890625 453.34765625 C-56.08812572 423.87289722 -56.08812572 423.87289722 -16.4375 378.3125 C-15.86426598 373.56284672 -15.90558103 370.4294421 -18.5625 366.375 C-39.69636058 341.13315247 -86.59605981 333.40437965 -116.73828125 326.42578125 C-120.77159843 325.48556319 -124.76005187 324.42401718 -128.75 323.3125 C-137.03997068 321.06467715 -145.43394585 319.38301864 -153.84765625 317.66796875 C-159.57344858 316.49938698 -165.28427169 315.26851853 -170.99438477 314.02587891 C-181.74393889 311.68841171 -192.49509231 309.47672853 -203.33642578 307.60522461 C-207.68371165 306.84915637 -211.91015215 305.9345903 -216.18457031 304.82617188 C-220.08190893 303.93757191 -224.03228028 303.37995468 -227.98046875 302.76513672 C-244.94352707 300.12192044 -261.63175186 296.54917792 -278.35598755 292.69425964 C-282.88541134 291.65298628 -287.42562259 290.68227205 -291.9765625 289.73828125 C-297.05164246 288.65687318 -301.93857688 287.40327287 -306.8125 285.625 C-307.51600586 285.37081299 -308.21951172 285.11662598 -308.94433594 284.85473633 C-330.71224849 276.74155072 -352.56958242 263.64259958 -363.4375 242.3125 C-370.04500479 227.13076576 -372.62783658 209.39031093 -367.60546875 193.19140625 C-356.05610531 164.72357729 -334.69964471 140.78414816 -310.17480469 122.60546875 C-308.45853483 121.32815493 -306.7636281 120.02628414 -305.0703125 118.71875 C-284.98441258 103.38884137 -262.7101411 91.12990046 -240.4375 79.3125 C-239.68944092 78.91548889 -238.94138184 78.51847778 -238.1706543 78.10943604 C-200.01753647 57.90343536 -161.1533035 39.74392488 -120.4375 25.3125 C-119.75836548 25.0710022 -119.07923096 24.82950439 -118.3795166 24.58068848 C-101.30461379 18.52225158 -84.09744679 13.33867323 -66.48876953 9.06201172 C-63.63936703 8.36208648 -60.80185214 7.62723667 -57.96484375 6.87890625 C-38.81986248 1.91412674 -19.73308017 0.04974772 0 0 Z " fill="#1800AD" transform="translate(1572.4375,942.6875)"/>
<path d="M0 0 C-15.56036446 5.74031891 -15.56036446 5.74031891 -24 5 C-23.67 4.34 -23.34 3.68 -23 3 C-15.93974292 0.67256509 -7.32811755 -2.0847231 0 0 Z " fill="#C3BEE1" transform="translate(1252,1483)"/>
</svg>
