<svg xmlns="http://www.w3.org/2000/svg" width="2000" height="2000" viewBox="0 0 2000 2000" version="1.1">
	<path d="M 188 286.429 C 188 286.669, 304.775 471.672, 447.500 697.547 L 707 1108.230 707 1406.115 L 707 1704 849 1704 L 991 1704 991 1406.858 L 991 1109.715 1250.153 700.108 C 1392.687 474.823, 1509.964 289.488, 1510.768 288.250 L 1512.230 286 1346.859 286 L 1181.489 286 1018.459 565.250 C 928.792 718.837, 855.076 844.500, 854.644 844.500 C 854.212 844.500, 779.260 718.950, 688.084 565.500 L 522.310 286.500 355.155 286.247 C 263.220 286.108, 188 286.190, 188 286.429 M 1556.500 943.077 C 1503.558 947.988, 1431.112 972.195, 1356 1010.070 C 1295.535 1040.560, 1266.533 1059.422, 1240.875 1084.946 C 1225.013 1100.725, 1216.381 1111.935, 1210.420 1124.500 C 1204.384 1137.222, 1202.644 1144.482, 1202.633 1157 C 1202.625 1165.867, 1203.051 1168.744, 1205.375 1175.500 C 1208.857 1185.626, 1214.160 1193.811, 1222.744 1202.309 C 1239.133 1218.535, 1257.730 1227.122, 1293.362 1234.917 C 1310.291 1238.620, 1319.888 1240.510, 1375.250 1251.043 C 1433.190 1262.066, 1483.137 1274.504, 1511.500 1284.974 C 1530.599 1292.024, 1542.626 1298.546, 1550.250 1305.988 C 1556.369 1311.960, 1557 1312.951, 1557 1316.592 C 1557 1321.719, 1553.697 1326.910, 1543.515 1337.787 C 1515.935 1367.250, 1438.915 1413.736, 1369.500 1442.814 C 1348.848 1451.465, 1301.627 1467.506, 1299.919 1466.450 C 1299.414 1466.138, 1299 1464.581, 1299 1462.990 C 1299 1457.541, 1296.822 1449.941, 1294.453 1447.126 C 1288.289 1439.801, 1269.978 1435.062, 1244.882 1434.296 C 1210.748 1433.254, 1189.264 1437.920, 1159 1452.947 C 1120.455 1472.086, 1091.983 1497.111, 1084.416 1518.500 C 1081.654 1526.306, 1081.883 1543.512, 1084.864 1552.257 C 1091.066 1570.448, 1110.977 1588.088, 1131.500 1593.574 C 1139.786 1595.789, 1163.879 1596.545, 1178.588 1595.053 C 1211.292 1591.734, 1249.215 1582.310, 1303 1564.137 C 1385.695 1536.196, 1459.093 1501.476, 1520.500 1461.251 C 1561.454 1434.424, 1605.632 1396.733, 1618.667 1377.500 C 1624.199 1369.336, 1632.453 1352.671, 1635.585 1343.341 C 1638.098 1335.855, 1638.155 1335.098, 1637.805 1314.078 C 1637.448 1292.697, 1637.417 1292.430, 1634.372 1284.859 C 1625.423 1262.608, 1603.811 1241.427, 1573.911 1225.602 C 1545.601 1210.618, 1502.893 1195.684, 1452.031 1182.982 C 1426.001 1176.482, 1401.270 1171.113, 1353 1161.482 C 1315.821 1154.064, 1299 1149.875, 1299 1148.033 C 1299 1146.166, 1304.415 1140.896, 1316.715 1130.793 C 1367.576 1089.016, 1444.044 1044.667, 1503 1022.755 C 1520.675 1016.185, 1553.811 1005, 1555.598 1005 C 1556.369 1005, 1557 1005.405, 1557 1005.899 C 1557 1006.394, 1545.249 1018.882, 1530.886 1033.649 C 1504.118 1061.173, 1486.213 1080.213, 1477.660 1090.248 C 1471.470 1097.510, 1470.408 1102.602, 1474.423 1105.761 C 1478.395 1108.885, 1481.201 1107.795, 1503.772 1094.361 C 1532.571 1077.220, 1573.570 1049.693, 1592 1035.124 C 1597.225 1030.994, 1605.550 1023.505, 1610.500 1018.482 C 1633.622 995.019, 1635.812 976.700, 1617.799 957.444 C 1610.974 950.148, 1604.692 946.668, 1594.499 944.535 C 1585.133 942.576, 1568.700 941.945, 1556.500 943.077 M 1239.867 1484.071 C 1236.769 1484.527, 1232.719 1485.560, 1230.867 1486.368 L 1227.500 1487.837 1230.500 1487.907 C 1233.551 1487.977, 1241.466 1486.071, 1246 1484.173 C 1248.913 1482.954, 1247.621 1482.932, 1239.867 1484.071" stroke="none" fill="black" fill-rule="evenodd"/>
</svg>